<svg width="98" height="91" viewBox="0 0 98 91" fill="none" xmlns="http://www.w3.org/2000/svg">
<path d="M31.8241 89.4975H78.9975C84.5204 89.4975 88.9975 85.0204 88.9975 79.4975V52.5841C88.9975 49.56 90.3145 46.5308 93.1365 45.4439C94.5684 44.8924 96.222 44.5 98 44.5M1.5 46V12C1.5 6.47715 5.97715 2 11.5 2H78.9975C84.5204 2 88.9975 6.47715 88.9975 12V37.2201" stroke="#0EA5E9" stroke-width="3"/>
<rect x="7.36987" y="7.86987" width="75.7578" height="75.7578" rx="9.5" fill="white" stroke="#DFDFDF"/>
<path d="M55.7891 23.1094H38.9141C37.3608 23.1094 36.1016 24.3686 36.1016 25.9219V56.1562C36.1016 57.7096 37.3608 58.9688 38.9141 58.9688H55.7891C57.3424 58.9688 58.6016 57.7096 58.6016 56.1562V25.9219C58.6016 24.3686 57.3424 23.1094 55.7891 23.1094Z" fill="#348FD9"/>
<path d="M52.2734 25.9219C52.2734 26.2948 52.1253 26.6525 51.8616 26.9162C51.5978 27.18 51.2401 27.3281 50.8672 27.3281H43.8359C43.463 27.3281 43.1053 27.18 42.8416 26.9162C42.5778 26.6525 42.4297 26.2948 42.4297 25.9219H38.9141V53.3438H55.7891V25.9219H52.2734Z" fill="white"/>
<path opacity="0.2" d="M58.6016 25.9219V56.1562C58.6017 56.5256 58.529 56.8914 58.3877 57.2327C58.2464 57.5739 58.0392 57.884 57.778 58.1452C57.5168 58.4064 57.2068 58.6136 56.8655 58.7549C56.5242 58.8962 56.1584 58.9689 55.7891 58.9688H38.9141C38.5447 58.9689 38.1789 58.8962 37.8376 58.7549C37.4964 58.6136 37.1863 58.4064 36.9251 58.1452C36.6639 57.884 36.4567 57.5739 36.3154 57.2327C36.1741 56.8914 36.1015 56.5256 36.1016 56.1562V51.9375C37.0578 51.9375 52.9766 43.4156 52.9766 35.0625V23.1094H55.7891C56.1584 23.1093 56.5242 23.182 56.8655 23.3233C57.2068 23.4646 57.5168 23.6717 57.778 23.9329C58.0392 24.1941 58.2464 24.5042 58.3877 24.8455C58.529 25.1867 58.6017 25.5525 58.6016 25.9219V25.9219Z" fill="black"/>
<path d="M28.3672 33.6562H52.9766V49.125H28.3672V33.6562Z" fill="#DE4132"/>
<path opacity="0.1" d="M50.1641 33.6562C50.1641 37.0129 48.8306 40.2321 46.4571 42.6056C44.0836 44.9791 40.8645 46.3125 37.5078 46.3125H28.3672V49.125H52.9766V33.6562H50.1641Z" fill="black"/>
<path d="M28.3672 36.4688H52.9766V40.6875H28.3672V36.4688Z" fill="#7A432A"/>
<path d="M52.2734 31.5469H53.6797V49.8281H52.2734V31.5469Z" fill="#44546C"/>
<path d="M31.1797 43.5H34.6953V46.3125H31.1797V43.5Z" fill="#FFA912"/>
<path opacity="0.1" d="M33.2891 43.5C33.2891 44.0594 33.0668 44.596 32.6712 44.9916C32.2757 45.3871 31.7391 45.6094 31.1797 45.6094V46.3125H34.6953V43.5H33.2891Z" fill="black"/>
<path d="M47.3516 57.5625C48.1282 57.5625 48.7578 56.9329 48.7578 56.1562C48.7578 55.3796 48.1282 54.75 47.3516 54.75C46.5749 54.75 45.9453 55.3796 45.9453 56.1562C45.9453 56.9329 46.5749 57.5625 47.3516 57.5625Z" fill="#44546C"/>
<path d="M58.6015 48.4219V38.5781L63.5734 43.55C64.892 44.8686 65.6328 46.657 65.6328 48.5218V63.8906H50.164V57.6581C50.164 57.0916 50.2756 56.5305 50.4925 56.0071C50.7093 55.4836 51.0271 55.008 51.4277 54.6074C51.8283 54.2068 52.3039 53.889 52.8274 53.6722C53.3508 53.4553 53.9118 53.3438 54.4784 53.3438L48.5622 47.4275C48.2684 47.1337 48.0353 46.7849 47.8763 46.401C47.7173 46.0171 47.6354 45.6057 47.6354 45.1902C47.6354 44.7747 47.7173 44.3632 47.8763 43.9793C48.0353 43.5954 48.2684 43.2466 48.5622 42.9528C48.856 42.659 49.2048 42.4259 49.5887 42.2669C49.9726 42.1079 50.384 42.0261 50.7995 42.0261C51.215 42.0261 51.6265 42.1079 52.0104 42.2669C52.3943 42.4259 52.7431 42.659 53.0369 42.9528L61.0595 50.9755" fill="#FEB784"/>
<path d="M58.8865 47.7203C58.612 47.4458 58.1669 47.4458 57.8923 47.7203C57.6178 47.9948 57.6178 48.44 57.8923 48.7145L60.4132 51.2354C60.6877 51.5099 61.1328 51.5099 61.4074 51.2354C61.6819 50.9608 61.6819 50.5157 61.4074 50.2411L58.8865 47.7203Z" fill="#FEB784"/>
<path opacity="0.2" d="M58.8865 47.7203C58.612 47.4458 58.1669 47.4458 57.8923 47.7203C57.6178 47.9948 57.6178 48.44 57.8923 48.7145L60.4132 51.2354C60.6877 51.5099 61.1328 51.5099 61.4074 51.2354C61.6819 50.9608 61.6819 50.5157 61.4074 50.2411L58.8865 47.7203Z" fill="black"/>
<path opacity="0.1" d="M63.5734 43.55L62.1672 42.1438C62.8201 42.7967 63.338 43.5718 63.6914 44.4249C64.0447 45.278 64.2266 46.1923 64.2266 47.1157V51.9376C64.2266 54.7348 63.1154 57.4174 61.1375 59.3953C59.1595 61.3732 56.4769 62.4844 53.6797 62.4844H50.1641V63.8907H65.6328V48.5219C65.6328 47.5986 65.451 46.6842 65.0976 45.8312C64.7443 44.9781 64.2263 44.203 63.5734 43.55V43.55Z" fill="black"/>
<path d="M36.1016 32.25C36.288 32.25 36.4669 32.1759 36.5987 32.0441C36.7306 31.9122 36.8047 31.7334 36.8047 31.5469V25.9219C36.8053 25.3626 37.0277 24.8265 37.4232 24.431C37.8186 24.0355 38.3548 23.8131 38.9141 23.8125H42.7812C42.9677 23.8125 43.1466 23.7384 43.2784 23.6066C43.4103 23.4747 43.4844 23.2959 43.4844 23.1094C43.4844 22.9229 43.4103 22.7441 43.2784 22.6122C43.1466 22.4803 42.9677 22.4062 42.7812 22.4062H38.9141C37.982 22.4073 37.0884 22.7781 36.4294 23.4372C35.7703 24.0962 35.3995 24.9898 35.3984 25.9219V31.5469C35.3984 31.7334 35.4725 31.9122 35.6044 32.0441C35.7362 32.1759 35.9151 32.25 36.1016 32.25Z" fill="black"/>
<path d="M50.4185 53.3438C50.4185 53.1573 50.3444 52.9784 50.2125 52.8466C50.0806 52.7147 49.9018 52.6406 49.7153 52.6406H39.6172V51.2495C39.6172 51.063 39.5431 50.8842 39.4112 50.7523C39.2794 50.6205 39.1005 50.5464 38.9141 50.5464C38.7276 50.5464 38.5487 50.6205 38.4169 50.7523C38.285 50.8842 38.2109 51.063 38.2109 51.2495V53.3438C38.2109 53.5302 38.285 53.7091 38.4169 53.841C38.5487 53.9728 38.7276 54.0469 38.9141 54.0469H49.7153C49.9018 54.0469 50.0806 53.9728 50.2125 53.841C50.3444 53.7091 50.4185 53.5302 50.4185 53.3438Z" fill="black"/>
<path d="M64.0707 43.053L59.3047 38.287V25.9219C59.3036 24.9898 58.9328 24.0962 58.2738 23.4372C57.6147 22.7781 56.7211 22.4073 55.7891 22.4062H46.2969C46.1104 22.4062 45.9316 22.4803 45.7997 22.6122C45.6678 22.7441 45.5938 22.9229 45.5938 23.1094C45.5938 23.2959 45.6678 23.4747 45.7997 23.6066C45.9316 23.7384 46.1104 23.8125 46.2969 23.8125H55.7891C56.3483 23.8131 56.8845 24.0355 57.2799 24.431C57.6754 24.8265 57.8978 25.3626 57.8984 25.9219V45.6094C57.8984 45.7959 57.9725 45.9747 58.1044 46.1066C58.2362 46.2384 58.4151 46.3125 58.6016 46.3125C58.788 46.3125 58.9669 46.2384 59.0987 46.1066C59.2306 45.9747 59.3047 45.7959 59.3047 45.6094V40.2755L63.0765 44.0472C63.6659 44.6335 64.1331 45.3308 64.4513 46.0989C64.7694 46.8669 64.932 47.6905 64.9297 48.5218V63.1875H50.8672V57.6583C50.8683 56.7008 51.2491 55.7829 51.9262 55.1059C52.6032 54.4288 53.5211 54.048 54.4786 54.0469C54.6176 54.0469 54.7535 54.0056 54.8692 53.9284C54.9848 53.8511 55.0749 53.7413 55.1281 53.6128C55.1813 53.4844 55.1952 53.343 55.1681 53.2066C55.141 53.0703 55.0741 52.945 54.9758 52.8466L49.0592 46.9305C48.5977 46.4689 48.3384 45.843 48.3384 45.1902C48.3384 44.5375 48.5977 43.9115 49.0592 43.45C49.5208 42.9885 50.1468 42.7292 50.7995 42.7292C51.4522 42.7292 52.0782 42.9885 52.5397 43.45L60.5624 51.4727C60.6949 51.6012 60.8727 51.6725 61.0573 51.6711C61.2419 51.6697 61.4186 51.5957 61.5491 51.4651C61.6797 51.3346 61.7536 51.1579 61.755 50.9733C61.7564 50.7887 61.6851 50.6109 61.5566 50.4784L56.4922 45.4138V25.9219C56.4922 25.7354 56.4181 25.5566 56.2862 25.4247C56.1544 25.2928 55.9755 25.2188 55.7891 25.2188H52.2734C52.087 25.2188 51.9081 25.2928 51.7763 25.4247C51.6444 25.5566 51.5703 25.7354 51.5703 25.9219C51.5701 26.1083 51.4959 26.287 51.3641 26.4188C51.2323 26.5506 51.0536 26.6248 50.8672 26.625H43.8359C43.6495 26.6248 43.4708 26.5506 43.339 26.4188C43.2072 26.287 43.1331 26.1083 43.1328 25.9219C43.1328 25.7354 43.0587 25.5566 42.9269 25.4247C42.795 25.2928 42.6162 25.2188 42.4297 25.2188H38.9141C38.7276 25.2188 38.5487 25.2928 38.4169 25.4247C38.285 25.5566 38.2109 25.7354 38.2109 25.9219V32.9531H29.7734C29.2142 32.9537 28.678 33.1762 28.2826 33.5716C27.8871 33.9671 27.6647 34.5032 27.6641 35.0625V47.7188C27.6647 48.278 27.8871 48.8142 28.2826 49.2096C28.678 49.6051 29.2142 49.8275 29.7734 49.8281H35.3984V56.1562C35.3995 57.0883 35.7703 57.9819 36.4294 58.641C37.0884 59.3 37.982 59.6708 38.9141 59.6719H49.4609V63.8906C49.4609 64.0771 49.535 64.2559 49.6669 64.3878C49.7987 64.5197 49.9776 64.5938 50.1641 64.5938H65.6328C65.8193 64.5938 65.9981 64.5197 66.13 64.3878C66.2619 64.2559 66.3359 64.0771 66.3359 63.8906V48.5218C66.3387 47.5057 66.14 46.4992 65.7511 45.5605C65.3623 44.6218 64.7911 43.7695 64.0707 43.053V43.053ZM29.7734 34.3594H52.2734V35.7656H29.0703V35.0625C29.0706 34.8761 29.1447 34.6974 29.2765 34.5656C29.4083 34.4338 29.587 34.3596 29.7734 34.3594ZM47.3516 58.2656H38.9141C38.3548 58.265 37.8186 58.0426 37.4232 57.6471C37.0277 57.2517 36.8053 56.7155 36.8047 56.1562V49.8281H47.3814C47.5679 49.8281 47.7468 49.754 47.8786 49.6222C48.0105 49.4903 48.0846 49.3115 48.0846 49.125C48.0846 48.9385 48.0105 48.7597 47.8786 48.6278C47.7468 48.496 47.5679 48.4219 47.3814 48.4219H29.7734C29.587 48.4216 29.4083 48.3475 29.2765 48.2157C29.1447 48.0839 29.0706 47.9052 29.0703 47.7188V41.3906H48.0846C48.2711 41.3906 48.4499 41.3165 48.5818 41.1847C48.7136 41.0528 48.7877 40.874 48.7877 40.6875C48.7877 40.501 48.7136 40.3222 48.5818 40.1903C48.4499 40.0585 48.2711 39.9844 48.0846 39.9844H29.0703V37.1719H52.2734V40.6875C52.2734 40.874 52.3475 41.0528 52.4794 41.1847C52.6112 41.3165 52.7901 41.3906 52.9766 41.3906C53.163 41.3906 53.3419 41.3165 53.4737 41.1847C53.6056 41.0528 53.6797 40.874 53.6797 40.6875V31.5469C53.6797 31.3604 53.6056 31.1816 53.4737 31.0497C53.3419 30.9178 53.163 30.8438 52.9766 30.8438C52.7901 30.8438 52.6112 30.9178 52.4794 31.0497C52.3475 31.1816 52.2734 31.3604 52.2734 31.5469V32.9531H39.6172V26.625H41.8471C41.9929 27.036 42.2624 27.3918 42.6185 27.6436C42.9746 27.8953 43.3998 28.0308 43.8359 28.0312H50.8672C51.3033 28.0308 51.7286 27.8953 52.0847 27.6436C52.4407 27.3918 52.7102 27.036 52.856 26.625H55.0859V44.0075L53.5341 42.4556C52.8089 41.7303 51.8252 41.3229 50.7995 41.3229C49.7739 41.3229 48.7902 41.7303 48.065 42.4556C47.3397 43.1808 46.9322 44.1645 46.9322 45.1902C46.9322 46.2158 47.3397 47.1995 48.065 47.9248L53.0026 52.862C51.9778 53.179 51.0813 53.8155 50.4441 54.6785C49.8068 55.5414 49.4623 56.5855 49.4609 57.6583V58.2656H47.3516Z" fill="black"/>
<path d="M34.6953 42.7969H31.1797C30.9932 42.7969 30.8144 42.871 30.6825 43.0028C30.5506 43.1347 30.4766 43.3135 30.4766 43.5V46.3125C30.4766 46.499 30.5506 46.6778 30.6825 46.8097C30.8144 46.9415 30.9932 47.0156 31.1797 47.0156H34.6953C34.8818 47.0156 35.0606 46.9415 35.1925 46.8097C35.3244 46.6778 35.3984 46.499 35.3984 46.3125V43.5C35.3984 43.3135 35.3244 43.1347 35.1925 43.0028C35.0606 42.871 34.8818 42.7969 34.6953 42.7969ZM33.9922 45.6094H31.8828V44.2031H33.9922V45.6094Z" fill="black"/>
<path d="M49.4609 56.1563C49.4609 55.7391 49.3372 55.3312 49.1054 54.9843C48.8737 54.6375 48.5442 54.3671 48.1588 54.2074C47.7733 54.0478 47.3492 54.006 46.94 54.0874C46.5309 54.1688 46.155 54.3697 45.86 54.6647C45.565 54.9597 45.3641 55.3356 45.2827 55.7447C45.2013 56.1539 45.2431 56.578 45.4028 56.9635C45.5624 57.3489 45.8328 57.6783 46.1797 57.9101C46.5265 58.1419 46.9344 58.2656 47.3516 58.2656C47.9108 58.265 48.447 58.0426 48.8424 57.6471C49.2379 57.2517 49.4603 56.7155 49.4609 56.1563V56.1563ZM47.3516 56.8594C47.2125 56.8594 47.0766 56.8181 46.9609 56.7409C46.8453 56.6636 46.7552 56.5538 46.702 56.4253C46.6487 56.2968 46.6348 56.1555 46.6619 56.0191C46.6891 55.8827 46.756 55.7574 46.8544 55.6591C46.9527 55.5607 47.078 55.4938 47.2144 55.4666C47.3508 55.4395 47.4922 55.4534 47.6206 55.5066C47.7491 55.5599 47.8589 55.65 47.9362 55.7656C48.0135 55.8812 48.0547 56.0172 48.0547 56.1563C48.0544 56.3427 47.9803 56.5214 47.8485 56.6532C47.7167 56.785 47.538 56.8591 47.3516 56.8594V56.8594Z" fill="black"/>
</svg>
