<svg width="98" height="91" viewBox="0 0 98 91" fill="none" xmlns="http://www.w3.org/2000/svg">
<path d="M31.8241 89.4975H78.9975C84.5204 89.4975 88.9975 85.0204 88.9975 79.4975V52.5841C88.9975 49.56 90.2703 46.4565 93.0961 45.3796C94.4539 44.8621 96.0784 44.5 98 44.5M2 46L1.61493 12.1136C1.55167 6.54672 6.04701 2 11.6143 2H78.9975C84.5204 2 88.9975 6.47715 88.9975 12V37.2201" stroke="#0EA5E9" stroke-width="3"/>
<rect x="7.36987" y="7.86987" width="75.7578" height="75.7578" rx="9.5" fill="white" stroke="#DFDFDF"/>
<g clip-path="url(#clip0_35_299)">
<path d="M28.25 21.75H46.25C47.9067 21.75 49.25 23.0933 49.25 24.75V62.25C49.25 63.9067 47.9067 65.25 46.25 65.25H28.25C26.5933 65.25 25.25 63.9067 25.25 62.25V24.75C25.25 23.0933 26.5933 21.75 28.25 21.75Z" fill="#C2DFF6"/>
<path d="M25.25 46.5V62.25C25.25 63.9067 26.5933 65.25 28.25 65.25H41C32.2948 65.25 25.25 56.8634 25.25 46.5Z" fill="#96C8EF"/>
<path d="M32 24.75H42.5C43.3284 24.75 44 24.0784 44 23.25V21.75H30.5V23.25C30.5 24.0784 31.1716 24.75 32 24.75Z" fill="#58595B"/>
<path d="M35.75 32.25H68.75V42.75H35.75V32.25Z" fill="#ED1C24"/>
<path d="M38.75 61.5C38.75 62.3284 38.0784 63 37.25 63C36.4216 63 35.75 62.3284 35.75 61.5C35.75 60.6716 36.4216 60 37.25 60C38.0784 60 38.75 60.6716 38.75 61.5Z" fill="#58595B"/>
<path d="M27.5 57H47V58.5H27.5V57Z" fill="black"/>
<path d="M37.25 63.75C36.0074 63.75 35 62.7426 35 61.5C35 60.2574 36.0074 59.25 37.25 59.25C38.4926 59.25 39.5 60.2574 39.5 61.5C39.5 62.7426 38.4926 63.75 37.25 63.75ZM37.25 60.75C36.8358 60.75 36.5 61.0858 36.5 61.5C36.5 61.9142 36.8358 62.25 37.25 62.25C37.6642 62.25 38 61.9142 38 61.5C38 61.0858 37.6642 60.75 37.25 60.75Z" fill="black"/>
<path d="M48.5 62.25C48.5 63.4926 47.4926 64.5 46.25 64.5H28.25C27.0074 64.5 26 63.4926 26 62.25V24.75C26 23.5074 27.0074 22.5 28.25 22.5H29.75V23.25C29.75 24.4926 30.7574 25.5 32 25.5H42.5C43.7426 25.5 44.75 24.4926 44.75 23.25V22.5H46.25C47.4926 22.5 48.5 23.5074 48.5 24.75V30H50V24.75C49.9974 22.6798 48.3202 21.0026 46.25 21H28.25C26.1798 21.0026 24.5026 22.6798 24.5 24.75V62.25C24.5026 64.3202 26.1798 65.9974 28.25 66H46.25C48.3202 65.9974 49.9974 64.3202 50 62.25V45H48.5V62.25ZM31.25 22.5H43.25V23.25C43.25 23.6642 42.9142 24 42.5 24H32C31.5858 24 31.25 23.6642 31.25 23.25V22.5Z" fill="black"/>
<path d="M35 31.5V43.5H69.5V31.5H35ZM68 42H36.5V33H68V42Z" fill="black"/>
<path d="M38.7771 39.6497L40.25 38.7989V40.5H41.75V38.7989L43.2229 39.6497L43.9729 38.3503L42.5 37.5L43.9729 36.6497L43.2229 35.3503L41.75 36.201V34.5H40.25V36.201L38.7771 35.3503L38.0271 36.6497L39.5 37.5L38.0271 38.3503L38.7771 39.6497Z" fill="black"/>
<path d="M46.2771 39.6497L47.75 38.7989V40.5H49.25V38.7989L50.7229 39.6497L51.4729 38.3503L50 37.5L51.4729 36.6497L50.7229 35.3503L49.25 36.201V34.5H47.75V36.201L46.2771 35.3503L45.5271 36.6497L47 37.5L45.5271 38.3503L46.2771 39.6497Z" fill="black"/>
<path d="M53.7771 39.6497L55.25 38.7989V40.5H56.75V38.7989L58.2229 39.6497L58.9729 38.3503L57.5 37.5L58.9729 36.6497L58.2229 35.3503L56.75 36.201V34.5H55.25V36.201L53.7771 35.3503L53.0271 36.6497L54.5 37.5L53.0271 38.3503L53.7771 39.6497Z" fill="black"/>
<path d="M61.2771 39.6497L62.75 38.7989V40.5H64.25V38.7989L65.7229 39.6497L66.4729 38.3503L65 37.5L66.4729 36.6497L65.7229 35.3503L64.25 36.201V34.5H62.75V36.201L61.2771 35.3503L60.5271 36.6497L62 37.5L60.5271 38.3503L61.2771 39.6497Z" fill="black"/>
</g>
<defs>
<clipPath id="clip0_35_299">
<rect width="45" height="45" fill="white" transform="translate(24.5 21)"/>
</clipPath>
</defs>
</svg>
