<svg width="99" height="91" viewBox="0 0 99 91" fill="none" xmlns="http://www.w3.org/2000/svg">
<path d="M32.3241 89.4975H79.4975C85.0204 89.4975 89.4975 85.0204 89.4975 79.4975V52.5841C89.4975 49.56 90.8145 46.5308 93.6365 45.4439C95.0684 44.8924 96.722 44.5 98.5 44.5M2 46V12C2 6.47715 6.47715 2 12 2H79.4975C85.0204 2 89.4975 6.47715 89.4975 12V37.2201" stroke="#0EA5E9" stroke-width="3"/>
<rect x="7.86987" y="7.86987" width="75.7578" height="75.7578" rx="9.5" fill="white" stroke="#DFDFDF"/>
<g clip-path="url(#clip0_35_305)">
<path d="M52.5936 53.0237L63.8718 35.4915L68.0161 38.1574L56.738 55.6896L52.5936 53.0237Z" fill="#FFA868"/>
<path d="M25.8795 61.3909V65.1211H58.0431V53.6452L56.7362 55.6782L51.3256 59.5383L52.5913 53.0134L58.0431 44.5327V21.8789H25.8795V53.6566" fill="#F9F5F3"/>
<path d="M52.5912 53.0132L51.3259 59.5384L56.7366 55.6779L52.5912 53.0132Z" fill="#868EAF"/>
<path d="M68.7301 37.0202L68.0093 38.1417L63.8639 35.477L64.5848 34.3555C65.3206 33.2108 66.8451 32.8794 67.9897 33.6152C69.1344 34.3511 69.466 35.8755 68.7301 37.0202V37.0202Z" fill="#868EAF"/>
<path d="M31.7216 26.0036H41.5014V37.1057H31.7216V26.0036Z" fill="#FFEC79"/>
<path d="M31.8878 41.241H52.9723V45.5657H31.8878V41.241Z" fill="#FA8EBB"/>
<path d="M36.6115 32.7919C37.7641 32.7919 38.6984 31.8576 38.6984 30.705C38.6984 29.5525 37.7641 28.6182 36.6115 28.6182C35.459 28.6182 34.5247 29.5525 34.5247 30.705C34.5247 31.8576 35.459 32.7919 36.6115 32.7919Z" fill="#FFDAD5"/>
<path d="M36.6114 32.792C36.6114 32.792 31.7216 32.6111 31.7216 37.1057H36.6114H41.5013C41.5013 32.6162 36.6114 32.792 36.6114 32.792Z" fill="#FFDAD5"/>
<path d="M68.465 32.8759C67.7139 32.393 66.8196 32.2315 65.9472 32.4213C65.0747 32.6111 64.3282 33.1292 63.8455 33.8803L63.1246 35.0018L58.922 41.5394V21.8789C58.922 21.3936 58.5285 21 58.0431 21H25.8795C25.3941 21 25.0006 21.3936 25.0006 21.8789V53.6566C25.0006 54.142 25.3941 54.5355 25.8795 54.5355C26.3649 54.5355 26.7584 54.142 26.7584 53.6566V22.7578H57.1642V44.274L51.8519 52.538C51.7923 52.6302 51.7493 52.7382 51.7284 52.8459L51.0543 56.3218C50.7077 56.1954 50.3103 56.1609 49.8904 56.2393C49.2644 56.3563 48.6806 56.6488 48.1675 57.0373C48.1485 56.7421 48.1207 56.445 48.0859 56.1253C47.9886 55.2309 47.5952 54.505 46.9783 54.0812C45.6919 53.1981 44.1347 54.2366 43.6228 54.5777C41.9658 55.6826 40.5429 57.2502 39.5079 59.1111C39.2719 59.5353 39.4246 60.0705 39.8489 60.3064C39.9841 60.3817 40.1307 60.4175 40.2752 60.4175C40.5839 60.4175 40.8834 60.2545 41.0442 59.9655C41.9438 58.348 43.1727 56.9906 44.598 56.0403C45.5998 55.3723 45.9116 55.4812 45.9833 55.5303C46.2464 55.711 46.3193 56.1396 46.3384 56.3155C46.452 57.3589 46.4831 58.0947 46.3525 59.4543C46.3117 59.8787 46.5814 60.2711 46.9921 60.3852C47.403 60.4995 47.8363 60.3021 48.0202 59.9177C48.4223 59.077 49.3048 58.137 50.2134 57.9673C50.3946 57.9336 50.496 57.9668 50.5147 58.0639C50.5406 58.2198 50.5166 58.8153 50.4635 59.3682C50.3171 60.1721 51.2685 60.7309 51.8905 60.2155L57.1644 56.4526V64.2422H26.7584V61.391C26.7584 60.9057 26.3649 60.5121 25.8795 60.5121C25.3941 60.5121 25.0006 60.9057 25.0006 61.391V65.1211C25.0006 65.6064 25.3941 66 25.8795 66H58.0431C58.5285 66 58.922 65.6064 58.922 65.1211V53.9034L68.7486 38.6169L69.4695 37.4954C70.4661 35.9448 70.0156 33.8725 68.465 32.8759V32.8759ZM65.3241 34.8307C65.791 34.1044 66.787 33.8871 67.5145 34.3545C68.2497 34.8271 68.4633 35.8097 67.9907 36.545L67.7452 36.9271L65.0785 35.2129L65.3241 34.8307ZM52.6079 57.5439L53.1547 54.7246L53.2072 54.4541L54.1887 55.085L55.1701 55.7158L54.291 56.3431L52.6079 57.5439ZM57.3049 53.1683C57.3046 53.1688 57.3041 53.1694 57.3038 53.1699L56.4724 54.4631L53.806 52.7492L58.7824 45.0079C58.7833 45.0066 58.7838 45.0052 58.7846 45.0039L64.1279 36.6916L66.7946 38.4058L57.3049 53.1683Z" fill="black"/>
<path d="M41.5014 25.1247H31.7216C31.2361 25.1247 30.8427 25.5183 30.8427 26.0036V37.1057C30.8427 37.591 31.2361 37.9846 31.7216 37.9846H41.5014C41.9868 37.9846 42.3803 37.591 42.3803 37.1057V26.0036C42.3803 25.5182 41.9868 25.1247 41.5014 25.1247V25.1247ZM40.6225 26.8825V33.1731C40.1372 32.7895 39.6034 32.5222 39.0868 32.3361C39.3964 31.8678 39.5773 31.3074 39.5773 30.7051C39.5773 29.0698 38.2468 27.7394 36.6114 27.7394C34.9761 27.7394 33.6457 29.0698 33.6457 30.7051C33.6457 31.3067 33.8262 31.8666 34.1352 32.3346C33.6189 32.5205 33.0855 32.7875 32.6005 33.1708V26.8825H40.6225ZM36.6119 31.9128C36.6097 31.9128 36.6064 31.9127 36.6041 31.9127C35.9414 31.9086 35.4035 31.3686 35.4035 30.705C35.4035 30.039 35.9454 29.4971 36.6114 29.4971C37.2776 29.4971 37.8195 30.039 37.8195 30.705C37.8195 31.3689 37.2812 31.9091 36.6181 31.9127C36.6163 31.9128 36.6136 31.9128 36.6119 31.9128ZM32.6828 36.2268C32.8058 35.6237 33.0673 35.1327 33.473 34.7392C34.6156 33.6307 36.5402 33.6692 36.5814 33.6703C36.5845 33.6704 36.5875 33.6702 36.5907 33.6703C36.5976 33.6703 36.6045 33.6708 36.6115 33.6708C36.6194 33.6708 36.627 33.6703 36.6347 33.6702C36.6375 33.6701 36.6404 33.6703 36.6432 33.6702C36.6624 33.6707 38.6 33.6318 39.7446 34.7362C40.1529 35.1301 40.4163 35.6222 40.54 36.2268H32.6828Z" fill="black"/>
<path d="M46.5232 28.6307H52.9722C53.4576 28.6307 53.8511 28.2371 53.8511 27.7518C53.8511 27.2664 53.4576 26.8729 52.9722 26.8729H46.5232C46.0378 26.8729 45.6443 27.2664 45.6443 27.7518C45.6443 28.2371 46.0378 28.6307 46.5232 28.6307V28.6307Z" fill="black"/>
<path d="M46.5232 32.4935H52.9722C53.4576 32.4935 53.8511 32.0999 53.8511 31.6146C53.8511 31.1292 53.4576 30.7357 52.9722 30.7357H46.5232C46.0378 30.7357 45.6443 31.1292 45.6443 31.6146C45.6443 32.0999 46.0378 32.4935 46.5232 32.4935V32.4935Z" fill="black"/>
<path d="M46.5232 36.3561H52.9722C53.4576 36.3561 53.8511 35.9626 53.8511 35.4772C53.8511 34.9919 53.4576 34.5983 52.9722 34.5983H46.5232C46.0378 34.5983 45.6443 34.9919 45.6443 35.4772C45.6443 35.9626 46.0378 36.3561 46.5232 36.3561V36.3561Z" fill="black"/>
<path d="M31.0088 41.241V45.5657C31.0088 46.051 31.4023 46.4446 31.8877 46.4446H52.9721C53.4575 46.4446 53.851 46.051 53.851 45.5657V41.241C53.851 40.7556 53.4575 40.3621 52.9721 40.3621H31.8877C31.4023 40.3621 31.0088 40.7555 31.0088 41.241V41.241ZM32.7666 42.1199H52.0932V44.6868H32.7666V42.1199Z" fill="black"/>
<path d="M45.1998 49.899C45.1998 49.4137 44.8063 49.0201 44.3209 49.0201H32.198C31.7126 49.0201 31.3191 49.4137 31.3191 49.899C31.3191 50.3844 31.7126 50.778 32.198 50.778H44.321C44.8063 50.778 45.1998 50.3844 45.1998 49.899Z" fill="black"/>
<path d="M32.198 52.7045C31.7126 52.7045 31.3191 53.098 31.3191 53.5834C31.3191 54.0687 31.7126 54.4623 32.198 54.4623H37.9061C38.3915 54.4623 38.785 54.0687 38.785 53.5834C38.785 53.098 38.3915 52.7045 37.9061 52.7045H32.198Z" fill="black"/>
<path d="M25.1491 58.0477C25.4148 58.4465 25.969 58.5545 26.3673 58.2903C26.7667 58.0254 26.8743 57.469 26.6099 57.0713C26.3449 56.6727 25.7891 56.5639 25.3917 56.8287C24.9905 57.0958 24.8873 57.6476 25.1491 58.0477V58.0477Z" fill="black"/>
</g>
<defs>
<clipPath id="clip0_35_305">
<rect width="45" height="45" fill="white" transform="translate(25 21)"/>
</clipPath>
</defs>
</svg>
