<svg width="99" height="91" viewBox="0 0 99 91" fill="none" xmlns="http://www.w3.org/2000/svg">
<path d="M32.3241 89.4975H79.4975C85.0204 89.4975 89.4975 85.0204 89.4975 79.4975V52.5841C89.4975 49.56 90.8145 46.5308 93.6365 45.4439C95.0684 44.8924 96.722 44.5 98.5 44.5M2 59.0155V12C2 6.47716 6.47715 2 12 2H79.4975C85.0204 2 89.4975 6.47715 89.4975 12V37.2201" stroke="#0EA5E9" stroke-width="3"/>
<rect x="7.86987" y="7.86987" width="75.7578" height="75.7578" rx="9.5" fill="white" stroke="#DFDFDF"/>
<path fill-rule="evenodd" clip-rule="evenodd" d="M56.1888 42.3112L48.91 54.9187C48.6194 55.4231 48.4488 55.9875 48.415 56.5688C48.3663 57.3638 48.2613 59.1056 48.1638 60.7537C48.0775 62.1712 48.8013 63.5156 50.0313 64.2263C51.2613 64.9369 52.7875 64.89 53.9725 64.1081C55.3506 63.1969 56.8075 62.2369 57.4712 61.7981C57.9569 61.4775 58.3619 61.0481 58.6525 60.5437L65.9312 47.9362C66.9662 46.1419 66.3531 43.8488 64.5587 42.8138L61.3112 40.9388C59.5169 39.9038 57.2238 40.5169 56.1888 42.3112ZM62.5 35.9644V30.375C62.5 27.2681 59.9819 24.75 56.875 24.75H38.125C36.6325 24.75 35.2019 25.3425 34.1481 26.3981C33.0925 27.4519 32.5 28.8825 32.5 30.375V56.625C32.5 59.7319 35.0181 62.25 38.125 62.25H43.6375C44.6725 62.25 45.5125 61.41 45.5125 60.375C45.5125 59.34 44.6725 58.5 43.6375 58.5H38.125C37.09 58.5 36.25 57.66 36.25 56.625V30.375C36.25 29.8781 36.4469 29.4 36.7994 29.0494C37.15 28.6969 37.6281 28.5 38.125 28.5H56.875C57.91 28.5 58.75 29.34 58.75 30.375V35.9644C58.75 36.9994 59.59 37.8394 60.625 37.8394C61.66 37.8394 62.5 36.9994 62.5 35.9644ZM59.4362 44.1862L62.6837 46.0612L55.405 58.6687L51.9063 60.9788L52.1575 56.7937L59.4362 44.1862ZM41.875 52.875H45.9531C46.9881 52.875 47.8281 52.035 47.8281 51C47.8281 49.965 46.9881 49.125 45.9531 49.125H41.875C40.84 49.125 40 49.965 40 51C40 52.035 40.84 52.875 41.875 52.875ZM41.875 45.375H50.0313C51.0663 45.375 51.9063 44.535 51.9063 43.5C51.9063 42.465 51.0663 41.625 50.0313 41.625H41.875C40.84 41.625 40 42.465 40 43.5C40 44.535 40.84 45.375 41.875 45.375ZM41.875 37.875H53.125C54.16 37.875 55 37.035 55 36C55 34.965 54.16 34.125 53.125 34.125H41.875C40.84 34.125 40 34.965 40 36C40 37.035 40.84 37.875 41.875 37.875Z" fill="black"/>
</svg>
