<svg width="99" height="91" viewBox="0 0 99 91" fill="none" xmlns="http://www.w3.org/2000/svg">
<path d="M32.3241 89.4975H79.4975C85.0204 89.4975 89.4975 85.0204 89.4975 79.4975V52.5841C89.4975 49.56 90.8126 46.4976 93.672 45.5134C95.2327 44.9763 96.9549 44.7401 98.5 45.275M2.5 46L2.11493 12.1136C2.05167 6.54672 6.54701 2 12.1143 2H79.4975C85.0204 2 89.4975 6.47715 89.4975 12V37.2201" stroke="#0EA5E9" stroke-width="3"/>
<rect x="7.86987" y="7.86987" width="75.7578" height="75.7578" rx="9.5" fill="white" stroke="#DFDFDF"/>
<g clip-path="url(#clip0_35_317)">
<path d="M35.4691 38.8454V21.0627H59.5303V38.8454" fill="#EFEFEF"/>
<path d="M35.4691 38.8454V34.1618H59.5303V38.8454" fill="#E0E0E0"/>
<path d="M59.6665 59.4995H66.2007C68.2991 59.4995 69.9999 57.7986 69.9999 55.7011V40.3479C69.9999 38.2504 68.2991 36.5495 66.2007 36.5495H28.7984C26.7009 36.5495 25 38.2504 25 40.3479V55.7011C25 57.7986 26.7009 59.4995 28.7984 59.4995H35.3325" fill="#494F56"/>
<path d="M28.4898 55.7011V40.3479C28.4898 38.2504 30.1906 36.5495 32.2882 36.5495H28.7984C26.7009 36.5495 25 38.2504 25 40.3479V55.7011C25 57.7986 26.7009 59.4995 28.7984 59.4995H32.2882C30.1906 59.4995 28.4898 57.7986 28.4898 55.7011Z" fill="#36393D"/>
<path d="M59.1366 54.5495H62.5612V47.2025H32.4388V54.5495H35.8634" fill="#36393D"/>
<path d="M60.3572 65.9372H34.6423L36.3031 50.4504H58.6963L60.3572 65.9372Z" fill="#EFEFEF"/>
<path d="M30.2346 44.1722C31.5534 44.1722 32.6224 43.1032 32.6224 41.7845C32.6224 40.4657 31.5534 39.3967 30.2346 39.3967C28.9159 39.3967 27.8469 40.4657 27.8469 41.7845C27.8469 43.1032 28.9159 44.1722 30.2346 44.1722Z" fill="#40D39B"/>
<path d="M37.3979 44.1722C38.7166 44.1722 39.7856 43.1032 39.7856 41.7845C39.7856 40.4657 38.7166 39.3967 37.3979 39.3967C36.0792 39.3967 35.0102 40.4657 35.0102 41.7845C35.0102 43.1032 36.0792 44.1722 37.3979 44.1722Z" fill="#FC6947"/>
<path d="M56.4538 62.5852H38.5456C38.1651 62.5852 37.8568 62.2768 37.8568 61.8964C37.8568 61.5161 38.1651 61.2076 38.5456 61.2076H56.4538C56.8342 61.2076 57.1426 61.5161 57.1426 61.8964C57.1426 62.2768 56.8342 62.5852 56.4538 62.5852Z" fill="#494F56"/>
<path d="M56.0177 59.4627H38.9816C38.6012 59.4627 38.2928 59.1543 38.2928 58.7739C38.2928 58.3935 38.6012 58.0851 38.9816 58.0851H56.0177C56.3981 58.0851 56.7065 58.3935 56.7065 58.7739C56.7065 59.1543 56.3981 59.4627 56.0177 59.4627Z" fill="#494F56"/>
<path d="M55.6504 56.3402H39.349C38.9685 56.3402 38.6602 56.0318 38.6602 55.6514C38.6602 55.2711 38.9685 54.9626 39.349 54.9626H55.6504C56.0308 54.9626 56.3392 55.2711 56.3392 55.6514C56.3391 56.0319 56.0308 56.3402 55.6504 56.3402Z" fill="#494F56"/>
</g>
<defs>
<clipPath id="clip0_35_317">
<rect width="45" height="45" fill="white" transform="translate(25 21)"/>
</clipPath>
</defs>
</svg>
