<svg width="824" height="813" viewBox="0 0 824 813" fill="none" xmlns="http://www.w3.org/2000/svg">
<path opacity="0.38" d="M424.84 25.4121C438.047 28.5853 451.281 32.7525 464.488 37.7098C477.658 42.7691 490.725 48.3254 503.538 54.1748C516.198 59.693 528.425 65.2875 540.029 70.8438C551.211 75.7884 561.501 80.6183 570.672 85.2952C582.708 91.2849 598.425 102.257 602.17 107.661C604.488 112.911 608.78 125.464 614.078 133.149C620.574 138.615 629.476 144.783 641.105 151.64C655.599 158.738 672.513 166.537 691.249 174.986C710.9 183.704 730.337 193.044 748.116 202.933C763.146 213.052 774.048 223.668 779.767 234.679C780.505 245.868 775.793 257.401 766.317 269.176C754.294 281.066 740.666 293.16 727.509 305.369C717.727 317.64 712.238 329.977 712.314 342.313C718.848 354.674 730.77 367.01 746.627 379.257C764.661 391.504 781.473 403.356 794.656 414.786C803.113 426.231 804.934 437.254 799.942 447.895C789.217 458.549 773.526 468.847 754.726 478.799C734.985 488.842 715.957 498.642 699.311 508.212C686.421 518 677.684 527.697 673.111 537.369C672.831 547.399 675.493 557.543 679.964 567.891C685.95 578.723 691.44 589.888 695.439 601.408C698.024 613.514 697.757 626.015 694.432 638.899C688.625 652.269 679.837 665.904 668.552 679.693C655.369 693.648 640.518 707.449 624.599 720.843C607.94 733.854 591.012 746.038 574.213 757.06C557.515 767.052 541.327 775.45 525.789 781.974C510.658 786.983 496.19 789.863 482.332 790.513C468.857 789.621 455.84 786.639 443.193 781.72C430.75 775.833 418.51 768.593 406.422 760.361C394.399 752.295 382.427 744.075 370.493 736.148C358.559 729.623 346.944 724.207 335.659 720.103C324.4 717.95 313.535 717.16 303.129 717.606C292.774 719.734 282.955 722.678 273.696 726.106C264.525 730.401 255.941 734.542 247.968 738.187C236.264 743.004 214.803 745.35 204.422 741.997C196.971 738.149 189.342 732.669 181.42 725.647C172.657 717.631 163.448 708.264 153.782 697.763C143.351 686.536 132.614 674.443 121.775 661.686C110.758 648.535 100.11 634.95 90.1757 621.122C80.8908 607.168 72.816 593.112 66.2057 579.08C60.7162 565.075 56.7806 551.171 54.3226 537.421C52.6031 523.76 51.839 510.263 51.737 496.947C51.2785 483.718 50.7308 470.656 49.8266 457.759C47.7506 444.926 45.0886 432.208 41.9172 419.655C37.8925 407.115 33.9569 394.69 30.5562 382.392C27.576 370.107 26.0476 358.217 26.2131 346.774C27.6014 335.303 30.76 324.267 35.4726 313.665C40.9492 303.061 47.3175 292.905 54.1697 283.219C60.6271 273.522 66.8553 264.282 72.6121 255.527C77.261 246.722 81.3238 238.387 84.9156 230.473C87.6285 222.483 90.3286 214.875 93.2962 207.623C96.251 200.181 100.072 193.006 104.95 186.061C110.567 178.809 117.508 171.672 125.762 164.613C134.944 157.119 145.312 149.614 156.66 142.069C168.658 134.027 181.306 125.909 194.386 117.729C207.657 109.101 221.081 100.473 234.506 91.9221C247.79 83.1034 260.971 74.5268 273.988 66.3325C286.738 58.1891 299.36 50.6448 311.893 43.8779C324.183 37.5314 336.486 32.2045 348.853 28.0117C361.081 24.5327 373.498 22.3535 386.134 21.5379C398.717 21.4997 411.607 22.7996 424.827 25.4121" stroke="#0EA5E9" stroke-width="2.57686" stroke-linecap="round" stroke-dasharray="12.88 12.88"/>
<path opacity="0.92" d="M451.711 41.9982C464.197 46.0105 476.41 50.9619 488.29 56.6817C500.124 62.5004 511.568 68.7771 522.506 75.3502C533.287 81.6184 543.413 87.9425 552.738 94.2099C561.734 99.892 569.734 105.401 576.612 110.717C585.611 117.612 597.031 129.841 600.074 135.575C603.061 141.011 612.113 153.673 620.948 161.465C629.795 167.097 640.845 173.526 654.177 180.728C669.682 188.262 686.782 196.549 704.764 205.523C722.769 214.716 739.678 224.432 754.276 234.521C765.772 244.584 773.014 254.843 775.323 265.189C773.188 275.36 766.339 285.569 755.568 295.795C743.063 306.001 729.601 316.368 717.067 326.968C707.96 337.874 702.962 349.172 703.067 360.894C709.013 373.055 719.737 385.567 733.955 398.312C750.155 411.198 765.309 423.691 777.286 435.626C785.184 447.286 787.145 458.207 782.904 468.37C773.336 478.209 758.882 487.42 741.105 496.167C721.834 504.911 702.548 513.487 684.783 522.056C669.887 531.032 658.448 540.253 650.702 549.772C646.946 559.92 646.28 570.438 647.848 581.331C651.456 592.803 655.412 604.594 658.722 616.67C661.466 629.167 662.143 641.837 660.373 654.603C656.624 667.56 650.171 680.468 641.229 693.186C630.407 705.784 617.648 717.952 603.478 729.484C588.263 740.455 572.362 750.459 556.19 759.244C539.812 766.99 523.658 773.169 507.948 777.578C492.502 780.614 477.652 781.697 463.493 780.773C449.671 778.519 436.466 774.405 423.854 768.582C411.449 761.982 399.486 754.187 387.916 745.537C376.396 737.084 365.126 728.507 354.068 720.2C342.922 713.153 332.199 707.132 321.866 702.313C311.407 699.249 301.371 697.441 291.777 696.788C282.072 697.712 272.847 699.437 264.132 701.708C255.343 704.856 247.065 707.975 239.284 710.773C231.358 713.624 223.849 715.623 216.683 716.573C209.165 716.898 201.808 715.841 194.478 713.33C186.576 709.872 178.487 704.893 170.146 698.452C161.105 691.041 151.749 682.306 142.12 672.402C131.992 661.759 121.829 650.169 111.82 637.862C101.929 625.128 92.6738 611.903 84.3328 598.385C76.7939 584.718 70.5896 570.956 65.8646 557.22C62.2348 543.524 60.0406 529.928 59.2115 516.532C58.926 503.212 59.4463 490.052 60.4251 477.091C60.9294 464.158 61.2323 451.366 61.0788 438.707C59.7402 426.016 57.7684 413.433 55.3029 400.97C52.0217 388.486 48.8195 376.148 46.1257 364.026C43.852 351.919 42.9698 340.359 43.7088 329.348C45.6556 318.409 49.3243 308.039 54.5496 298.225C60.5899 288.445 67.5643 279.177 75.0919 270.396C82.3543 261.57 89.4591 253.168 96.1524 245.17C101.821 237.037 106.852 229.254 111.309 221.827C114.822 214.193 118.097 206.874 121.414 199.865C124.505 192.61 128.178 185.613 132.666 178.84C137.696 171.786 143.877 164.889 151.263 158.116C159.542 150.997 169.016 143.938 179.561 136.915C190.874 129.487 203.005 122.066 215.757 114.676C228.933 106.92 242.448 99.2384 256.132 91.6969C269.904 83.9828 283.669 76.5365 297.33 69.5044C310.893 62.5804 324.298 56.2839 337.533 50.7548C350.585 45.647 363.516 41.5274 376.318 38.5227C388.995 36.1864 401.598 35.0968 414.172 35.3211C426.668 36.2808 439.177 38.5062 451.698 41.9974" stroke="#0EA5E9" stroke-width="2.57686" stroke-linecap="round" stroke-dasharray="5.15 10.31"/>
<path opacity="0.81" d="M471.412 59.7275C483.011 64.477 494.064 70.076 504.556 76.3674C514.984 82.7527 524.785 89.5638 533.908 96.6134C542.904 103.387 551.112 110.191 558.445 116.896C568.66 126.044 583.853 142.271 588.955 149.381C593.424 155.601 601.662 167.803 607.333 174.439C612.943 179.058 619.919 184.285 628.587 190.201C639.347 196.415 651.948 203.43 666.225 211.251C681.924 219.376 698.409 228.218 714.929 237.631C730.707 247.106 744.742 256.899 756.004 266.827C764.041 276.464 767.924 286 767.244 295.325C762.763 304.24 754.307 312.976 742.742 321.591C730.142 330.15 717.163 338.939 705.418 348.096C697.069 357.799 692.57 368.204 692.695 379.381C698.036 391.325 707.58 403.943 720.169 417.033C734.559 430.391 748.049 443.39 758.8 455.754C766.043 467.622 768.034 478.524 764.445 488.401C755.97 497.636 742.803 506.025 726.191 513.769C707.695 521.362 688.543 528.784 670.151 536.276C653.776 544.247 640.105 552.653 629.547 561.606C622.541 571.359 618.538 581.718 616.949 592.639C617.705 604.266 619.434 616.29 621.278 628.586C623.275 641.265 624.016 653.985 622.996 666.621C620.637 679.26 616.007 691.578 609.166 703.439C600.678 714.938 590.253 725.762 578.242 735.705C565.123 744.937 551.019 753.037 536.329 759.833C521.251 765.555 506.083 769.733 491.155 772.221C476.294 773.417 461.927 772.857 448.166 770.478C434.659 766.937 421.795 761.764 409.59 755.126C397.58 747.834 386.114 739.524 375.16 730.503C364.226 721.702 353.653 712.812 343.403 704.174C332.989 696.697 323.036 690.147 313.504 684.7C303.711 680.825 294.319 678.113 285.314 676.487C276.041 676.29 267.183 676.885 258.734 678.04C250.048 680.05 241.751 682.14 233.84 684.041C225.639 686.081 217.727 687.442 210.054 687.936C201.964 687.932 193.963 686.745 185.965 684.269C177.432 680.947 168.773 676.241 159.962 670.162C150.633 663.2 141.189 654.959 131.701 645.579C122.018 635.49 112.555 624.479 103.557 612.737C94.9275 600.57 87.1498 587.932 80.4812 575.001C74.7311 561.944 70.3588 548.786 67.4726 535.671C65.5718 522.594 65.0165 509.643 65.6447 496.873C66.6531 484.146 68.2813 471.582 70.2103 459.165C71.543 446.688 72.5787 434.311 73.0904 422.002C72.422 409.576 71.1306 397.19 69.333 384.925C66.7771 372.566 64.288 360.371 62.289 348.438C60.7062 336.565 60.4226 325.326 61.6778 314.756C64.1093 304.328 68.2058 294.587 73.8068 285.485C80.2797 276.493 87.7293 268.052 95.7864 260.134C103.725 252.15 111.593 244.565 119.13 237.322C125.746 229.856 131.735 222.649 137.107 215.702C141.504 208.462 145.513 201.425 149.36 194.621C152.8 187.515 156.557 180.622 160.876 173.938C165.516 166.977 171.11 160.19 177.733 153.588C185.132 146.684 193.667 139.929 203.265 133.3C213.653 126.37 224.974 119.56 237.027 112.854C249.652 105.933 262.782 99.1612 276.227 92.6144C289.927 86.0008 303.748 79.7133 317.554 73.8871C331.376 68.2304 345.082 63.2009 358.576 58.9395C371.983 55.1159 385.152 52.2497 398.055 50.4271C410.828 49.2553 423.36 49.2461 435.624 50.4735C447.795 52.3697 459.733 55.4556 471.402 59.713" stroke="#0EA5E9" stroke-width="2.57686" stroke-linecap="round" stroke-dasharray="11.6 6.44"/>
<path opacity="0.24" d="M484.619 77.4447C495.204 82.8085 505.071 88.917 514.199 95.6098C523.254 102.404 531.554 109.558 539.071 116.895C546.523 123.997 553.155 131.091 558.955 138.06C567.149 147.706 579.653 165.017 584.427 172.756C589.478 179.746 601.359 193.769 609.811 201.49C617.323 206.911 626.201 212.95 636.565 219.713C648.577 226.752 661.933 234.561 676.334 243.09C691.421 251.82 706.549 261.093 720.993 270.753C734.159 280.241 745.107 289.802 753.063 299.228C757.881 308.097 758.791 316.608 755.611 324.685C749.32 332.209 739.785 339.427 727.874 346.488C715.549 353.536 703.275 360.896 692.444 368.814C684.901 377.491 680.903 387.138 681.026 397.852C685.757 409.557 694.13 422.2 705.13 435.526C717.727 449.181 729.567 462.544 739.063 475.234C745.557 487.278 747.472 498.208 744.421 507.929C736.94 516.748 725.031 524.526 709.692 531.474C692.197 538.091 673.55 544.434 654.983 550.819C637.66 557.668 622.298 565.03 609.415 573.04C599.528 581.956 592.369 591.641 587.621 602.051C585.316 613.274 584.401 625.004 584.155 637.073C584.681 649.556 584.667 662.066 583.613 674.378C581.859 686.618 578.408 698.39 573.181 709.506C566.709 720.121 558.486 729.85 548.733 738.507C537.958 746.346 526.087 752.919 513.451 758.077C500.331 762.153 486.906 764.677 473.478 765.572C460.008 765.271 446.84 763.315 434.129 759.724C421.596 755.115 409.606 749.072 398.231 741.74C387.008 733.88 376.319 725.17 366.154 715.843C355.963 706.758 346.162 697.614 336.685 688.722C326.977 680.849 317.708 673.838 308.812 667.821C299.575 663.216 290.647 659.656 282.025 657.099C273.034 655.832 264.326 655.317 255.889 655.354C247.097 656.202 238.559 657.196 230.253 658.084C221.58 659.166 213.086 659.713 204.722 659.533C195.942 658.988 187.213 657.413 178.493 654.704C169.336 651.304 160.176 646.637 150.982 640.738C141.511 634.062 132.149 626.212 122.987 617.308C113.919 607.788 105.35 597.395 97.482 586.346C90.2239 574.946 83.9862 563.099 79.0012 551.002C74.9742 538.81 72.3421 526.552 71.1332 514.34C70.8129 502.175 71.6829 490.11 73.5625 478.196C75.6617 466.291 78.2092 454.481 80.8955 442.754C82.9191 430.897 84.5504 419.048 85.6347 407.199C85.5679 395.127 84.9017 383.058 83.7398 371.05C81.878 358.907 80.0961 346.936 78.775 335.247C77.8425 323.629 78.1365 312.73 79.8462 302.579C82.7069 292.649 87.1507 283.476 93.0228 275.053C99.8271 266.778 107.619 259.121 116.064 252.006C124.546 244.835 133.054 238.034 141.314 231.532C148.811 224.762 155.737 218.169 162.04 211.742C167.385 204.927 172.258 198.244 176.807 191.675C180.808 184.753 184.908 177.969 189.323 171.359C193.83 164.441 199.064 157.719 205.116 151.186C211.767 144.416 219.429 137.851 228.077 131.484C237.467 124.939 247.792 118.593 258.902 112.469C270.633 106.244 282.971 100.292 295.751 94.6439C308.888 89.0334 322.248 83.8359 335.682 79.1494C349.236 74.6846 362.715 70.881 375.991 67.8419C389.237 65.2399 402.208 63.5563 414.834 62.88C427.342 62.8046 439.476 63.8085 451.175 65.9312C462.761 68.6946 473.921 72.5393 484.606 77.442" stroke="#0EA5E9" stroke-width="2.57686" stroke-linecap="round"/>
<path opacity="0.73" d="M492.883 94.4471C502.402 100.272 511.095 106.746 518.982 113.716C526.797 120.798 533.828 128.157 540.084 135.677C546.317 143.004 551.814 150.303 556.59 157.486C563.557 167.586 575.165 186.156 580.485 194.758C584.592 200.127 588.894 205.554 593.618 211.13C599.415 216.619 606.02 222.474 613.631 228.795C622.631 235.264 632.792 242.351 644.125 250.107C656.59 258.074 669.862 266.684 683.548 275.841C697.306 285.018 710.481 294.516 722.411 304.145C732.729 313.346 740.583 322.35 745.399 330.951C747.34 338.811 745.731 346.106 740.6 352.832C733.031 358.916 722.9 364.683 711.048 370.309C699.263 376.02 687.89 382.183 678.03 389.077C671.316 396.922 667.789 405.943 667.868 416.248C671.984 427.724 679.21 440.315 688.654 453.721C699.515 467.55 709.723 481.111 717.922 494.01C723.609 506.194 725.326 517.16 722.682 526.795C716.084 535.338 705.395 542.667 691.342 549.021C675.026 554.812 657.166 560.209 638.851 565.527C621.102 571.18 604.619 577.321 589.971 584.126C577.713 591.837 567.806 600.402 560.117 609.781C554.794 620.06 551.066 630.96 548.412 642.279C546.926 654.094 545.532 665.962 543.738 677.648C541.842 689.28 538.864 700.383 534.636 710.727C529.629 720.553 523.206 729.359 515.508 736.986C506.986 743.748 497.417 749.134 487.049 753.068C476.226 755.913 464.951 757.208 453.515 756.905C441.972 755.509 430.54 752.538 419.382 748.07C408.339 742.706 397.686 736.035 387.518 728.243C377.452 720.004 367.812 711.027 358.604 701.523C349.353 692.26 340.393 682.949 331.708 673.837C322.741 665.651 314.122 658.229 305.762 651.706C296.993 646.404 288.432 642.037 280.05 638.559C271.203 636.233 262.513 634.601 253.951 633.487C244.948 633.118 236.068 632.918 227.295 632.67C218.113 632.649 209.022 632.215 199.988 631.175C190.586 629.895 181.232 627.714 171.93 624.579C162.342 620.87 152.866 616.092 143.547 610.22C134.18 603.735 125.126 596.215 116.549 587.784C108.286 578.86 100.768 569.197 94.1616 558.949C88.2998 548.467 83.608 537.606 80.2186 526.553C77.8073 515.465 76.7399 504.316 77.0089 493.221C78.0089 482.167 80.0602 471.193 82.9456 460.313C85.889 449.371 89.1437 438.453 92.4106 427.539C94.9593 416.403 97.0693 405.179 98.6233 393.862C99.0691 382.248 98.9518 370.565 98.3956 358.887C97.1995 347.037 96.0903 335.344 95.4121 323.949C95.1132 312.664 95.9401 302.118 98.0882 292.365C101.316 282.912 106.016 274.284 112.115 266.459C119.125 258.873 127.145 251.923 135.856 245.559C144.74 239.152 153.768 233.119 162.648 227.362C170.913 221.306 178.706 215.366 185.932 209.514C192.251 203.212 198.057 196.948 203.441 190.721C208.194 184.058 212.858 177.477 217.628 170.991C222.291 164.183 227.428 157.526 233.182 151.075C239.317 144.401 246.285 137.97 254.094 131.795C262.515 125.52 271.818 119.54 281.88 113.873C292.538 108.207 303.832 102.91 315.618 98.0207C327.79 93.2577 340.282 88.9982 352.917 85.2977C365.721 81.8849 378.508 79.1706 391.13 77.2048C403.751 75.7029 416.105 75.0787 428.069 75.3897C439.931 76.2814 451.345 78.1709 462.255 81.0686C473.018 84.5609 483.248 89.0264 492.874 94.4312" stroke="#0EA5E9" stroke-width="2.57686" stroke-linecap="round" stroke-dasharray="5.15 10.31"/>
<path opacity="0.11" d="M498.294 110.583C506.731 116.758 514.341 123.484 521.168 130.642C527.928 137.909 533.954 145.437 539.299 153.081C544.66 160.608 549.43 168.122 553.657 175.558C558.075 182.697 562.098 189.732 565.858 196.63C570.036 203.206 574.159 209.708 578.404 216.213C583.392 222.503 588.779 228.926 594.759 235.582C601.768 242.208 609.578 249.239 618.313 256.745C628.148 264.359 638.861 272.539 650.315 281.251C662.438 290.059 674.818 299.314 687.054 308.885C698.891 318.253 709.678 327.669 718.85 336.939C728.714 349.641 730.81 370.958 722.437 379.296C714.076 384.025 703.773 388.461 692.307 392.848C681.305 397.448 670.927 402.644 662.091 408.734C656.164 415.922 653.056 424.445 653.065 434.389C656.563 445.617 662.647 458.081 670.591 471.461C679.769 485.296 688.383 498.923 695.28 511.904C700.117 524.141 701.537 535.12 699.154 544.698C693.324 553.062 683.762 560.093 671.014 565.977C655.957 571.122 639.135 575.683 621.432 580.016C603.754 584.507 586.717 589.356 570.919 594.784C556.898 601.028 544.759 608.128 534.551 616.035C526.489 624.894 520.046 634.445 514.896 644.499C511.152 655.124 507.952 665.896 504.899 676.558C502.221 687.236 499.058 697.425 495.176 706.872C490.996 715.843 485.844 723.764 479.734 730.49C473.129 736.383 465.636 740.89 457.428 743.91C448.888 745.914 439.867 746.38 430.593 745.288C421.217 743.181 411.797 739.605 402.506 734.609C393.259 728.829 384.245 721.858 375.547 713.849C366.895 705.49 358.539 696.438 350.454 686.903C342.287 677.597 334.295 668.218 326.423 658.992C318.262 650.555 310.277 642.782 302.43 635.779C294.139 629.833 285.915 624.702 277.712 620.324C269.016 616.959 260.329 614.196 251.64 611.879C242.474 610.271 233.308 608.811 224.146 607.339C214.584 606.141 205.053 604.601 195.541 602.567C185.752 600.402 176.041 597.505 166.464 593.804C156.758 589.714 147.293 584.709 138.167 578.824C129.195 572.479 120.748 565.296 112.97 557.368C105.709 549.1 99.3575 540.244 94.0792 530.941C89.6111 521.501 86.3844 511.786 84.4837 501.934C83.485 492.101 83.7487 482.232 85.2201 472.398C87.2908 462.597 90.2399 452.805 93.8524 443.055C97.4002 433.186 101.128 423.233 104.782 413.185C107.679 402.832 110.143 392.292 112.045 381.586C112.934 370.493 113.305 359.264 113.298 347.991C112.711 336.518 112.239 325.182 112.18 314.121C112.476 303.204 113.813 293.036 116.349 283.704C119.886 274.713 124.81 266.599 131.037 259.333C138.176 252.36 146.324 246.072 155.198 240.39C164.35 234.729 173.749 229.431 183.115 224.405C192.047 219.085 200.61 213.845 208.689 208.632C215.96 202.957 222.733 197.234 229.035 191.461C234.672 185.213 240.083 178.948 245.424 172.727C250.506 166.139 255.832 159.666 261.559 153.355C267.446 146.832 273.973 140.558 281.152 134.578C288.777 128.532 297.141 122.838 306.189 117.533C315.727 112.3 325.876 107.509 336.516 103.224C347.523 99.1285 358.869 95.6199 370.398 92.7217C382.114 90.1638 393.852 88.3204 405.475 87.2353C417.099 86.626 428.479 86.8641 439.481 87.9815C450.386 89.6603 460.843 92.2607 470.756 95.7878C480.527 99.8469 489.716 104.791 498.282 110.579" stroke="#0EA5E9" stroke-width="2.57686" stroke-linecap="round" stroke-dasharray="9.02 11.6"/>
<path opacity="0.25" d="M502.977 126.372C510.363 132.773 517.017 139.685 522.979 146.984C528.873 154.404 534.154 162.066 538.878 169.884C543.679 177.622 548.053 185.407 552.08 193.189C556.378 200.772 560.488 208.339 564.556 215.874C569.106 223.207 573.824 230.573 578.835 238.03C584.571 245.366 590.811 252.915 597.679 260.748C605.413 268.578 613.865 276.803 623.011 285.437C632.935 294.115 643.377 303.222 654.166 312.708C665.172 322.083 675.994 331.682 686.226 341.351C695.733 350.582 703.885 359.594 710.243 368.188C715.976 379.534 711.551 397.218 701.493 403.617C692.783 407.142 682.662 410.451 671.837 413.833C661.744 417.575 652.417 422.038 644.585 427.524C639.395 434.214 636.646 442.34 636.518 451.968C639.375 462.94 644.376 475.2 650.87 488.425C658.433 502.133 665.497 515.672 671.118 528.603C675.056 540.804 676.087 551.736 673.852 561.266C668.668 569.497 660.131 576.301 648.624 581.85C634.908 586.474 619.291 590.353 602.507 593.819C585.337 597.209 568.295 600.782 551.948 604.765C536.819 609.424 523.089 614.824 510.941 620.994C500.59 628.071 491.785 635.844 484.302 644.184C478.309 653.155 473.143 662.371 468.528 671.57C464.648 680.906 460.776 689.853 456.682 698.142C450.459 709.552 434.976 725.832 425.666 730.037C415.638 731.431 393.99 725.467 382.905 718.347C375.564 712.496 368.303 705.508 361.191 697.538C354.089 689.293 347.108 680.376 340.251 670.97C333.277 661.791 326.321 652.479 319.332 643.209C312.036 634.652 304.749 626.604 297.447 619.177C289.692 612.664 281.856 606.8 273.902 601.568C265.453 597.216 256.871 593.35 248.184 589.87C239.027 587.03 229.786 584.321 220.47 581.618C210.795 579.217 201.127 576.552 191.494 573.498C181.657 570.436 171.971 566.785 162.506 562.522C153.065 558.017 143.996 552.812 135.417 546.92C127.14 540.76 119.555 533.961 112.821 526.608C106.679 519.09 101.573 511.129 97.6182 502.876C94.4939 494.579 92.5938 486.105 91.9795 477.569C92.1474 469.063 93.4831 460.539 95.8857 452.033C98.7099 443.523 102.279 434.97 106.354 426.38C110.255 417.585 114.236 408.617 118.089 399.466C121.179 389.928 123.853 380.107 126.026 370.03C127.265 359.519 128.061 348.809 128.54 337.998C128.52 326.962 128.63 316.04 129.155 305.375C130.011 294.873 131.799 285.127 134.698 276.202C138.502 267.686 143.597 260.059 149.895 253.294C157.092 246.893 165.264 241.211 174.197 236.165C183.504 231.19 193.123 226.606 202.844 222.293C212.299 217.733 221.484 213.248 230.307 208.753C238.464 203.791 246.147 198.728 253.389 193.562C259.96 187.899 266.237 182.145 272.318 176.361C278.007 170.174 283.783 164.042 289.731 158.027C295.669 151.786 302.008 145.767 308.828 140.048C315.889 134.258 323.532 128.854 331.721 123.878C340.239 119.009 349.298 114.648 358.794 110.834C368.562 107.255 378.658 104.312 388.958 102.034C399.391 100.11 409.879 98.9366 420.289 98.5251C430.684 98.582 440.873 99.4685 450.736 101.201C460.473 103.464 469.812 106.581 478.65 110.563C487.297 115.031 495.428 120.301 502.971 126.355" stroke="#0EA5E9" stroke-width="2.57686" stroke-linecap="round" stroke-dasharray="2.58 2.58"/>
<path opacity="0.83" d="M508.668 142.747C515.093 149.302 520.912 156.342 526.166 163.757C531.359 171.314 536.089 179.141 540.429 187.18C544.852 195.175 549.024 203.311 553.035 211.533C557.329 219.633 561.602 227.823 566.005 236.098C570.867 244.243 576.026 252.534 581.546 260.989C587.712 269.374 594.371 278.023 601.563 286.945C609.429 295.853 617.814 305.084 626.623 314.631C635.891 324.106 645.349 333.842 654.758 343.725C664.056 353.333 672.818 362.912 680.692 372.287C687.661 381.032 693.152 389.327 696.815 396.986C698.837 406.699 689.248 420.74 678.186 425.393C669.483 427.914 659.837 430.334 649.82 432.959C640.723 436.079 632.439 440.027 625.546 445.1C621.008 451.441 618.535 459.271 618.237 468.618C620.447 479.301 624.381 491.273 629.492 504.226C635.541 517.67 641.126 530.98 645.497 543.723C648.521 555.771 649.109 566.593 646.924 576.009C642.242 584.125 634.618 590.773 624.311 596.064C611.949 600.306 597.649 603.635 582.034 606.343C565.755 608.781 549.186 611.164 532.862 613.764C517.265 616.816 502.631 620.442 489.179 624.72C477.158 629.783 466.479 635.523 457.065 641.816C449.055 648.777 442.033 656.053 435.802 663.393C430.503 671.017 425.586 678.356 420.875 685.183C414.401 694.721 400.819 708.148 393.394 711.358C385.737 712.097 369.384 705.553 360.986 698.469C355.411 692.777 349.825 686.008 344.26 678.309C338.69 670.377 333.101 661.782 327.481 652.678C321.724 643.776 315.843 634.649 309.787 625.47C303.41 616.886 296.904 608.68 290.235 600.908C283.121 593.939 275.788 587.458 268.24 581.457C260.219 576.227 251.97 571.368 243.524 566.821C234.651 562.855 225.632 558.998 216.515 555.161C207.099 551.64 197.676 547.943 188.34 543.975C178.888 540.088 169.643 535.791 160.713 531.042C151.911 526.217 143.603 520.904 135.901 515.109C128.594 509.223 122.1 502.904 116.527 496.215C109.68 486.032 102.751 464.704 102.817 453.901C103.903 446.744 106.016 439.56 109.057 432.37C112.351 425.114 116.247 417.761 120.539 410.289C124.55 402.535 128.596 394.526 132.474 386.238C135.63 377.489 138.399 368.386 140.733 358.962C142.236 349.064 143.39 338.903 144.297 328.611C144.783 318.077 145.437 307.633 146.5 297.425C147.86 287.391 150.07 278.089 153.276 269.598C157.312 261.554 162.524 254.389 168.849 248.113C176.018 242.232 184.148 237.117 193.034 232.639C202.344 228.316 212.074 224.423 221.989 220.803C231.79 217.019 241.469 213.301 250.881 209.569C259.775 205.428 268.291 201.156 276.389 196.746C283.882 191.822 291.048 186.78 297.932 181.643C304.384 176.072 310.757 170.486 317.144 164.982C323.356 159.21 329.793 153.615 336.505 148.285C343.272 142.883 350.437 137.841 357.993 133.255C365.713 128.743 373.85 124.773 382.311 121.383C390.947 118.232 399.855 115.734 408.924 113.93C418.061 112.482 427.263 111.777 436.402 111.862C445.491 112.385 454.415 113.73 463.068 115.9C471.572 118.537 479.731 122.004 487.461 126.294C494.99 131.014 502.073 136.505 508.656 142.741" stroke="#0EA5E9" stroke-width="2.57686" stroke-linecap="round" stroke-dasharray="7.73 11.6"/>
<path opacity="0.75" d="M516.382 160.895C521.931 167.515 527.018 174.655 531.689 182.212C536.293 189.876 540.586 197.888 544.619 206.17C548.753 214.457 552.78 222.963 556.746 231.658C561.002 240.277 565.358 249.097 569.89 258.089C574.849 267.004 580.103 276.119 585.722 285.468C591.84 294.739 598.358 304.264 605.256 314.044C612.603 323.732 620.239 333.633 628.046 343.717C636.017 353.588 643.89 363.519 651.408 373.39C658.601 382.799 665.031 391.936 670.398 400.657C676.316 412.275 677.927 430.44 673.006 436.721C667.904 439.809 661.163 442.269 653.07 444.247C644.656 445.994 635.654 447.789 626.555 449.903C614.813 454.458 599.993 470.985 598.336 483.855C599.902 494.225 602.819 505.843 606.632 518.406C611.23 531.466 615.422 544.405 618.602 556.823C620.742 568.599 620.837 579.199 618.616 588.455C614.338 596.438 607.529 602.94 598.326 608.032C587.283 612.006 574.385 614.909 560.106 617.015C544.994 618.653 529.321 620.011 513.54 621.347C498.087 622.905 483.204 624.823 469.137 627.214C456.119 630.237 444.194 633.818 433.373 637.916C423.783 642.643 415.212 647.713 407.541 652.931C397.839 661.22 382.023 676.271 375.15 682.04C362.699 687.383 344.171 681.551 337.954 674.675C333.878 669.274 329.732 662.865 325.539 655.551C321.34 648.082 317.025 639.937 312.588 631.247C307.989 622.741 303.174 613.932 298.08 604.946C292.669 596.484 287.009 588.227 281.095 580.276C274.741 572.996 268.091 566.042 261.159 559.437C253.766 553.49 246.104 547.826 238.219 542.397C229.943 537.49 221.506 532.693 212.976 527.926C204.199 523.501 195.456 518.975 186.821 514.279C178.154 509.774 169.762 505.003 161.751 499.963C153.932 494.998 146.69 489.719 140.116 484.171C131.351 475.817 119.32 458.233 116.43 449.241C115.617 440.372 119.981 422.625 124.672 413.681C128.176 407.591 132.154 401.347 136.434 394.888C140.371 388.091 144.306 380.961 148.087 373.478C151.173 365.477 153.954 357.074 156.369 348.272C158.069 339.005 159.497 329.428 160.787 319.688C161.718 309.707 162.856 299.78 164.388 290.088C166.206 280.562 168.79 271.732 172.265 263.709C176.487 256.126 181.769 249.441 188.071 243.598C195.154 238.235 203.147 233.628 211.896 229.681C221.115 225.971 230.792 222.703 240.758 219.767C250.727 216.728 260.696 213.809 270.526 210.895C279.981 207.62 289.145 204.237 297.971 200.716C306.282 196.703 314.253 192.534 321.945 188.235C329.171 183.505 336.226 178.711 343.182 173.931C349.848 168.847 356.575 163.906 363.394 159.174C370.123 154.326 377.068 149.825 384.231 145.719C391.41 141.682 398.852 138.159 406.512 135.197C414.213 132.458 422.089 130.37 430.084 128.977C438.058 127.902 446.054 127.58 454.011 128.032C461.855 128.881 469.555 130.529 477.052 132.997C484.354 135.87 491.384 139.551 498.06 144.034C504.527 148.897 510.647 154.52 516.377 160.877" stroke="#0EA5E9" stroke-width="2.57686" stroke-linecap="round" stroke-dasharray="9.02 5.15"/>
<path opacity="0.3" d="M526.19 181.76C530.975 188.434 535.403 195.635 539.535 203.283C543.614 211.067 547.477 219.231 551.21 227.74C555.003 236.279 558.785 245.11 562.598 254.202C566.617 263.27 570.793 272.598 575.158 282.142C579.843 291.638 584.801 301.366 590.019 311.319C595.586 321.164 601.405 331.226 607.428 341.439C613.7 351.488 620.022 361.619 626.289 371.759C632.516 381.568 638.409 391.225 643.761 400.612C648.673 409.435 652.7 417.783 655.635 425.531C658.067 435.551 654.007 450.206 647.318 454.804C641.57 456.963 634.622 458.603 626.701 459.89C618.8 461.127 610.559 462.526 602.4 464.35C592.079 468.662 578.934 484.743 577.066 497.214C577.988 507.245 579.935 518.443 582.548 530.496C585.811 543.043 588.722 555.489 590.774 567.446C592.047 578.828 591.642 589.116 589.337 598.116C585.367 605.92 579.254 612.273 571.084 617.206C561.308 620.971 549.827 623.591 536.988 625.243C523.261 626.273 508.794 626.805 493.996 627.076C479.224 627.335 464.682 627.733 450.651 628.38C437.325 629.467 424.801 630.97 413.201 632.871C402.598 635.33 392.935 638.103 384.168 641.076C372.833 646.099 354.675 655.496 347.311 659.012C335.49 661.493 320.256 653.974 315.619 647.315C312.657 642.205 309.638 636.183 306.574 629.321C303.493 622.353 300.267 614.722 296.872 606.524C293.328 598.485 289.504 590.099 285.363 581.431C280.917 573.202 276.163 565.047 271.096 557.058C265.624 549.642 259.828 542.428 253.719 535.428C247.188 529.019 240.385 522.789 233.354 516.74C225.971 511.19 218.452 505.716 210.872 500.307C203.083 495.265 195.363 490.196 187.815 485.063C180.272 480.203 173.037 475.206 166.24 470.105C156.668 462.674 141.513 447.523 136.383 439.899C132.471 425.227 137.718 403.63 142.629 396.329C148.04 388.588 159.612 371.207 165.033 361.259C167.976 353.947 170.679 346.19 173.125 338.007C174.944 329.345 176.615 320.368 178.219 311.201C179.526 301.815 181.076 292.464 183.037 283.307C185.245 274.33 188.146 266.024 191.854 258.468C196.209 251.39 201.511 245.152 207.742 239.756C214.678 234.864 222.477 230.735 230.998 227.279C239.993 224.125 249.499 221.458 259.342 219.15C269.295 216.845 279.353 214.695 289.384 212.605C299.183 210.249 308.795 207.803 318.145 205.243C327.083 202.253 335.734 199.114 344.098 195.827C352.044 192.122 359.764 188.314 367.291 184.491C374.486 180.343 381.611 176.27 388.688 172.369C395.576 168.295 402.499 164.517 409.502 161.083C419.882 156.196 441.015 149.228 451.685 147.451C462.192 146.755 482.719 149.596 492.479 153.225C501.729 158.172 518.604 172.468 526.181 181.753" stroke="#0EA5E9" stroke-width="2.57686" stroke-linecap="round" stroke-dasharray="5.15 7.73"/>
<path opacity="0.65" d="M537.315 205.858C541.402 212.535 545.227 219.758 548.827 227.46C552.357 235.285 555.758 243.537 559.072 252.165C565.88 269.526 572.869 288.228 580.298 307.926C588.645 327.351 597.618 347.575 606.869 368.138C616.445 387.672 625.17 406.732 631.828 424.367C636.655 439.437 637.509 451.862 633.415 460.961C626.373 466.979 614.763 470.346 599.781 472.131C585.633 474.391 572.071 478.655 561.255 486.731C558.032 492.605 555.881 499.793 554.793 508.271C555.079 517.903 556.128 528.586 557.646 540.053C559.689 551.984 561.427 563.805 562.476 575.175C562.926 586.05 562.039 595.921 559.611 604.597C550.702 618.531 534.761 626.91 513.095 630.517C487.964 631.139 460.663 629.829 433.561 628.069C408.095 627.236 385.275 627.5 365.754 628.665C349.469 631.314 336.122 633.753 325.261 634.881C316.645 635.809 309.5 634.043 303.444 628.953C298.44 622.801 293.821 613.228 289.287 600.431C287.047 593.921 284.684 586.789 282.169 579.108C279.494 571.576 276.572 563.648 273.341 555.392C269.807 547.495 265.972 539.595 261.836 531.756C257.332 524.388 252.502 517.129 247.384 510.011C236.024 497.275 223.795 484.97 211.261 473.141C198.072 462.83 185.575 452.59 174.597 442.471C164.354 433.415 156.734 424.383 152.337 415.651C149.548 407.703 150.205 399.929 154.131 392.345C158.787 384.63 165.48 376.289 173.321 366.952C179.651 355.892 185.715 342.982 191.13 328.299C193.038 320.235 194.877 311.86 196.743 303.275C198.378 294.51 200.286 285.759 202.596 277.183C205.129 268.798 208.308 261.03 212.187 253.973C216.617 247.388 221.898 241.611 228.005 236.653C242.085 228.26 259.043 222.637 277.917 219.029C297.505 215.762 317.458 213.007 336.963 210.171C355.275 205.986 372.639 201.242 389.019 196.181C404.05 189.837 418.584 183.838 432.752 178.802C446.121 173.602 459.439 170.217 472.579 169.141C484.997 168.837 497.06 171.328 508.462 176.838C516.375 181.987 530.807 196.501 537.312 205.84" stroke="#0EA5E9" stroke-width="2.57686" stroke-linecap="round" stroke-dasharray="1.29 3.87"/>
<path opacity="0.5" d="M548.322 232.909C555.064 246.343 561.052 261.839 566.578 278.97C572.195 296.262 577.863 314.888 583.683 334.432C590.04 353.61 596.519 373.3 602.699 392.858C608.785 411.146 613.539 428.411 616.012 443.743C616.866 456.504 614.198 466.452 607.509 473.222C598.924 477.542 587.039 479.712 572.937 480.905C560.196 483.146 548.252 487.58 538.622 495.712C533.811 508.466 532.098 525.794 532.456 546.689C534.523 569.261 534.322 590.233 530.052 607.55C521.807 621.005 507.827 629.135 488.99 632.409C466.961 632.462 442.573 629.881 417.795 626.04C393.73 622.347 371.506 619.068 351.97 616.339C335.024 614.847 320.933 613.389 309.545 611.175C300.329 609.166 293.06 605.299 287.35 598.984C282.78 592.125 278.986 582.565 275.588 570.36C272.199 558.093 268.394 543.846 263.827 528.066C258.136 513.433 251.381 498.702 243.675 484.341C234.598 471.633 224.895 459.328 215.082 447.591C204.65 437.321 195.025 427.43 186.899 418.084C176.713 406.017 171.262 385.551 176.361 376.543C180.875 370.228 187.011 363.147 194.083 354.932C199.704 344.901 205.234 333.014 210.442 319.4C214.039 304.063 218.015 287.885 223.155 271.902C229.058 256.65 237.581 244.041 248.917 234.477C262.408 226.955 278.563 222.193 296.595 219.555C315.508 217.605 335.068 216.413 354.503 215.439C373.163 213.472 391.082 211.116 408.068 208.472C423.802 204.65 438.798 201.016 453.081 198.092C466.361 194.844 479.186 193.096 491.447 193.345C502.811 194.109 513.589 197.382 523.59 203.431C532.638 210.362 540.894 220.158 548.313 232.901" stroke="#0EA5E9" stroke-width="2.57686" stroke-linecap="round" stroke-dasharray="11.6 10.31"/>
<path opacity="0.95" d="M557.475 261.885C563.014 275.105 567.777 290.254 571.982 306.887C576.16 323.644 580.124 341.58 583.902 360.173C587.907 378.292 591.579 396.553 594.492 414.244C597.129 430.546 598.201 445.409 597.054 458.05C594.667 468.368 589.351 475.971 580.942 480.731C571.535 483.771 559.861 485.245 546.86 486.259C535.455 488.788 524.897 493.562 516.222 501.791C511.396 514.255 508.781 530.698 507.564 550.142C507.713 571.131 506.086 590.633 501.35 606.811C493.667 619.66 481.448 627.538 465.288 630.671C446.368 630.513 425.183 627.238 403.285 622.059C381.472 616.363 360.83 610.376 342.285 604.508C325.626 599.504 311.526 594.566 300.065 589.246C290.483 584.356 283.065 578.299 277.487 570.592C272.994 562.726 269.603 552.897 266.939 541.061C264.279 529.308 261.555 515.925 258.416 501.226C254.236 487.448 249.343 473.555 243.806 459.992C237.022 447.788 229.869 436.032 222.828 424.961C215.146 415.221 208.309 406.129 202.885 397.846C196.155 387.433 194.833 370.886 200.225 363.658C204.379 358.277 209.845 352.056 216.073 344.598C220.985 335.328 225.996 324.285 231.007 311.625C234.739 297.425 239.085 282.478 244.689 267.761C250.928 253.741 259.47 242.19 270.466 233.47C283.252 226.773 298.438 222.768 315.4 220.983C333.298 220.141 352.028 220.332 370.878 221.028C389.287 221.146 407.209 221.098 424.293 220.874C440.327 219.674 455.516 218.558 469.791 217.964C483.008 216.945 495.459 217.098 507.051 218.914C517.661 221.003 527.463 225.256 536.322 231.943C544.231 239.286 551.296 249.231 557.475 261.885Z" stroke="#0EA5E9" stroke-width="2.57686" stroke-linecap="round" stroke-dasharray="9.02 14.17"/>
<path opacity="0.62" d="M563.209 291.071C567.588 303.948 571.046 318.43 573.765 334.104C576.374 349.865 578.471 366.467 580.027 383.388C581.625 399.777 582.52 415.921 582.406 431.103C581.962 444.933 579.939 457.1 575.962 467.009C571.148 474.99 564.056 480.543 554.721 483.755C545.074 485.953 533.97 487.15 522.155 488.362C511.967 491.36 502.558 496.572 494.612 504.884C489.639 516.97 486.203 532.405 483.662 550.285C482.174 569.557 479.36 587.437 474.24 602.349C467.018 614.475 456.379 622.059 442.669 625.174C426.734 625.115 408.816 621.694 390.095 615.903C371.095 609.059 352.773 601.34 336.024 593.265C320.518 585.618 307.162 577.926 296.174 570.04C286.69 562.607 279.336 554.519 273.929 545.451C269.429 536.458 266.259 526.187 264.088 514.556C261.892 503.105 259.971 490.461 258.032 476.871C255.153 463.984 251.952 451.136 248.416 438.689C243.766 427.322 239.015 416.514 234.521 406.504C227.194 393.593 218.122 373.607 217.894 366.314C219.773 359.991 231.173 346.09 238.972 336.204C243.248 327.479 247.812 317.12 252.619 305.339C256.477 292.214 261.109 278.51 267.034 265.068C273.478 252.303 281.939 241.814 292.468 233.96C304.464 228 318.557 224.672 334.253 223.581C350.844 223.619 368.357 224.941 386.14 227.036C403.756 228.953 421.077 230.969 437.708 232.984C453.536 234.265 468.506 235.643 482.475 237.387C495.456 238.703 507.482 240.909 518.433 244.392C528.421 248.002 537.389 253.357 545.255 260.733C552.24 268.59 558.224 278.661 563.209 291.071Z" stroke="#0EA5E9" stroke-width="2.57686" stroke-linecap="round"/>
<path opacity="0.74" d="M564.399 318.419C567.659 330.757 569.815 344.269 571.046 358.575C572.095 372.909 572.356 387.688 571.818 402.413C571.233 416.606 569.708 430.183 567.072 442.585C564.183 453.794 559.843 463.29 553.876 470.669C547.498 476.639 539.427 480.597 529.831 482.754C520.369 484.562 510.042 485.842 499.402 487.482C490.258 491.064 481.763 496.693 474.354 505.009C469.182 516.598 465.015 530.912 461.383 547.148C458.558 564.607 454.789 580.75 449.428 594.295C442.607 605.584 433.338 612.838 421.844 616.005C408.634 616.272 393.85 613.136 378.365 607.364C362.411 600.236 346.859 591.727 332.431 582.447C318.75 573.19 306.789 563.669 296.849 553.972C287.976 544.624 281.06 534.93 276.017 524.746C271.67 514.759 268.721 504.048 266.941 492.564C265.108 481.298 263.814 469.324 262.848 456.783C261.049 444.807 259.271 433.093 257.472 421.927C254.652 411.572 251.977 401.901 249.642 393.135C245.481 381.743 241.561 364.633 242.799 358.484C245.222 352.837 255.559 339.591 262.334 330.014C266.108 321.626 270.32 311.864 274.977 300.906C278.944 288.832 283.788 276.33 289.903 264.181C296.442 252.651 304.693 243.229 314.681 236.231C325.797 230.964 338.689 228.204 352.969 227.64C368.053 228.317 384.021 230.473 400.345 233.63C416.675 236.936 432.87 240.636 448.513 244.518C463.564 247.966 477.84 251.56 491.103 255.442C503.535 258.971 514.916 263.149 525.097 268.258C534.421 273.413 542.574 279.892 549.491 287.921C555.612 296.293 560.587 306.445 564.399 318.419Z" stroke="#0EA5E9" stroke-width="2.57686" stroke-linecap="round" stroke-dasharray="7.73 2.58"/>
<path opacity="0.71" d="M560.683 341.89C562.873 353.514 563.811 365.798 563.679 378.439C563.334 391.067 561.999 403.727 559.737 415.986C557.366 427.767 553.984 438.715 549.534 448.362C544.913 457.082 539.072 464.207 531.984 469.505C524.77 473.908 516.386 476.777 507.034 478.393C498.048 480.168 488.577 481.807 479.048 484.02C470.768 488.162 463.005 494.133 455.99 502.315C450.602 513.281 445.838 526.368 441.372 540.894C437.496 556.464 433.018 570.838 427.526 582.945C421.081 593.307 413.008 600.155 403.445 603.396C392.64 604.119 380.726 601.577 368.297 596.356C355.379 589.641 342.712 581.218 330.893 571.704C319.444 561.863 309.318 551.512 300.853 540.895C293.077 530.461 286.979 519.813 282.57 508.974C278.622 498.327 276.031 487.369 274.658 476.104C273.176 465.062 272.415 453.715 272.229 442.221C271.326 431.116 270.699 420.528 270.256 410.656C268.415 397.08 265.561 375.242 265.361 367.074C265.453 360.279 270.367 349.171 275.049 343.416C277.916 338.537 281.517 332.835 285.696 326.135C289.139 318.021 293.102 308.78 297.646 298.627C301.712 287.571 306.697 276.278 312.883 265.404C319.392 255.106 327.339 246.735 336.677 240.549C346.861 235.919 358.489 233.62 371.249 233.432C384.682 234.518 398.904 237.163 413.47 240.99C428.143 245.238 442.763 250.117 456.938 255.378C470.735 260.487 483.837 265.84 495.977 271.458C507.468 276.858 517.903 282.72 527.115 289.213C535.599 295.738 542.851 303.191 548.765 311.719C554.008 320.51 557.995 330.548 560.683 341.89Z" stroke="#0EA5E9" stroke-width="2.57686" stroke-linecap="round" stroke-dasharray="2.58 2.58"/>
<path opacity="0.3" d="M552.436 359.961C553.634 370.675 553.536 381.567 552.278 392.388C550.814 403.193 548.282 413.675 544.776 423.503C541.171 432.969 536.577 441.451 531.024 448.683C525.421 455.303 518.822 460.534 511.336 464.309C503.91 467.677 495.698 469.949 486.904 471.44C478.561 473.465 469.976 475.604 461.44 478.412C453.879 483.041 446.673 489.194 439.978 497.107C434.404 507.297 429.188 519.078 424.144 531.878C419.515 545.553 414.579 558.104 409.08 568.751C403.005 578.092 395.954 584.481 388.034 587.758C379.281 588.975 369.844 587.204 360.146 582.89C350.031 577.096 340.147 569.472 330.911 560.539C321.818 551.044 313.745 540.812 306.995 530.194C300.643 519.553 295.659 508.703 292.1 497.798C288.811 487.017 286.748 476.176 285.837 465.327C284.774 454.661 284.52 444.008 284.94 433.499C284.75 423.28 285.001 413.754 285.566 405.039C285.456 392.935 286.215 373.648 287.513 366.362C288.765 359.929 294.439 348.58 298.808 342.389C301.451 337.229 304.702 331.358 308.517 324.684C311.782 316.817 315.611 308.09 320.092 298.744C324.252 288.69 329.307 278.594 335.434 268.975C341.823 259.88 349.357 252.514 357.97 247.132C367.182 243.073 377.512 241.135 388.723 241.177C400.433 242.422 412.793 245.276 425.417 249.372C438.188 254.075 450.936 259.594 463.321 265.653C475.457 271.814 486.994 278.316 497.665 285.101C507.841 291.825 517.024 298.893 525.031 306.364C532.439 313.879 538.638 321.997 543.507 330.757C547.797 339.724 550.805 349.466 552.436 359.961Z" stroke="#0EA5E9" stroke-width="2.57686" stroke-linecap="round" stroke-dasharray="9.02 10.31"/>
<path opacity="0.56" d="M540.714 371.891C541.042 381.531 540.098 390.956 538.038 400.01C535.785 409.028 532.481 417.487 528.261 425.141C523.97 432.575 518.778 439.035 512.797 444.381C506.839 449.402 500.108 453.316 492.75 456.149C485.555 458.945 477.846 461.053 469.809 462.741C462.188 465.143 454.447 467.837 446.78 471.173C439.817 476.109 433.075 482.271 426.668 489.753C420.978 499.033 415.505 509.434 410.131 520.507C405.029 532.28 399.858 543.068 394.48 552.241C385.688 563.418 365.295 570.793 354.229 567.098C346.53 562.539 339.096 556.167 332.221 548.428C325.369 540.009 319.331 530.698 314.314 520.85C309.49 510.834 305.745 500.531 303.183 490.176C300.737 479.874 299.314 469.567 298.9 459.428C298.343 449.412 298.537 439.569 299.44 430.037C299.845 420.699 300.733 412.146 301.98 404.407C303.103 393.545 306.308 376.069 308.582 369.175C310.632 362.725 316.856 350.499 321.042 343.707C323.591 338.252 326.684 332.229 330.282 325.612C333.505 318.033 337.296 309.877 341.711 301.354C345.942 292.328 350.994 283.406 356.979 275.022C363.137 267.077 370.163 260.695 377.989 256.051C386.207 252.513 395.26 250.867 404.908 250.997C414.914 252.22 425.386 254.984 436.021 259.012C446.795 263.71 457.519 269.331 467.913 275.613C478.152 282.163 487.868 289.162 496.818 296.474C505.412 303.857 513.118 311.518 519.723 319.445C525.888 327.434 530.902 335.764 534.66 344.419C537.955 353.215 540.006 362.401 540.714 371.891Z" stroke="#0EA5E9" stroke-width="2.57686" stroke-linecap="round" stroke-dasharray="3.87 1.29"/>
<path opacity="0.19" d="M526.884 377.92C525.874 394.917 520.42 409.894 511.597 421.889C502.554 433.432 490.629 441.495 476.813 446.223C463.657 451.745 449.366 456.62 435.143 462.823C422.722 474.229 410.824 489.545 399.573 507.327C389.038 527.369 378.437 542.267 367.787 549.585C356.027 552.258 344.521 546.657 334.754 534.936C324.92 520.594 317.922 503.059 314.664 484.602C311.493 466.037 311.43 447.558 314.306 430.38C315.601 413.695 318.606 399.894 322.738 388.985C324.946 378.155 328.668 369.189 333.85 361.276C337.595 351.569 343.145 340.886 350.469 328.797C356.801 313.854 365.44 298.005 376.85 283.523C388.714 270.501 403.219 263.57 419.302 262.916C436.27 265.922 454.071 274.102 470.904 285.638C487.337 298.594 501.622 313.353 512.264 328.792C521.524 344.674 526.688 361.285 526.884 377.92Z" stroke="#0EA5E9" stroke-width="2.57686" stroke-linecap="round" stroke-dasharray="11.6 11.6"/>
<path opacity="0.38" d="M512.386 379.224C510.34 393.726 504.529 405.908 495.944 415.3C487.167 424.606 476.095 431.271 463.701 435.708C451.799 441.403 439.081 447.028 426.423 453.844C414.829 464.69 403.446 478.157 392.595 492.94C382.14 509.462 372.36 521.845 363.391 528.382C353.899 531.755 345.373 528.434 338.65 519.819C331.852 508.942 327.406 494.815 325.875 479.348C324.249 463.588 325.117 447.582 328.447 432.528C330.558 417.748 334.205 405.264 338.78 395.01C341.878 384.539 346.155 375.298 351.518 366.718C355.761 356.554 361.471 345.666 368.636 334.017C375.217 320.383 383.726 306.545 394.423 294.338C405.389 283.326 417.996 277.452 431.381 276.841C445.226 279.132 459.338 286.061 472.367 296.177C485.079 307.782 495.881 321.276 503.587 335.408C510.271 350.029 513.449 364.939 512.386 379.224Z" stroke="#0EA5E9" stroke-width="2.57686" stroke-linecap="round" stroke-dasharray="10.31 2.58"/>
<path opacity="0.96" d="M498.295 377.687C495.597 389.717 489.888 399.641 482.017 407.294C473.964 415.093 464.119 421.065 453.318 425.681C442.807 431.606 431.603 437.708 420.447 444.68C409.799 454.538 399.202 465.989 389.084 477.932C379.182 491.13 370.345 501.095 362.799 506.694C351.889 509.598 338.251 490.3 336.697 472.892C336.259 460.388 337.83 447.211 341.413 434.353C344.093 421.655 348.071 410.45 352.844 400.716C356.552 390.704 361.223 381.375 366.722 372.467C371.457 362.34 377.356 351.753 384.396 340.968C391.107 328.946 399.348 317.205 409.118 307.179C419.039 298.083 429.782 293.192 440.644 292.542C451.697 294.03 462.532 299.427 472.21 307.644C481.586 317.188 489.271 328.556 494.382 340.598C498.766 353.095 500.251 365.777 498.295 377.687Z" stroke="#0EA5E9" stroke-width="2.57686" stroke-linecap="round" stroke-dasharray="10.31 12.88"/>
<path opacity="0.54" d="M485.206 375.494C482.215 385.144 476.935 393.247 470.029 399.757C462.951 406.487 454.481 412.114 445.316 416.974C436.221 422.901 426.548 429.072 416.877 435.704C407.379 444.24 397.862 453.571 388.826 462.845C366.551 482.694 347.708 476.694 347.485 464.162C347.788 454.909 349.729 444.664 353.329 434.114C356.32 423.607 360.397 413.808 365.163 404.831C369.226 395.596 374.121 386.632 379.642 377.944C384.708 368.465 390.678 358.803 397.469 349.322C404.097 339.164 411.8 329.574 420.445 321.641C429.161 314.353 438.075 310.387 446.668 309.675C455.263 310.396 463.32 314.222 470.194 320.383C476.797 327.528 481.914 336.33 484.937 345.871C487.44 355.753 487.664 365.893 485.206 375.494Z" stroke="#0EA5E9" stroke-width="2.57686" stroke-linecap="round" stroke-dasharray="5.15 11.6"/>
<path opacity="0.68" d="M473.048 374.643C466.868 389.512 454.19 401.129 439.117 410.092C423.908 421.924 406.809 435.387 391.44 448.142C370.849 466.172 357.205 453.743 364.845 430.753C370.346 414.33 379.669 397.897 390.584 382.833C400.474 366.109 413.419 349.298 428.087 337.183C442.788 326.799 456.481 326.685 465.984 334.503C474.656 344.773 477.867 359.814 473.048 374.643Z" stroke="#0EA5E9" stroke-width="2.57686" stroke-linecap="round" stroke-dasharray="6.44 3.87"/>
<path opacity="0.89" d="M461.295 376.552C455.902 387.276 445.858 396.934 434.088 405.163C422.06 414.949 408.522 425.347 396.452 434.212C380.268 446.478 370.247 440.161 376.786 424.224C381.867 412.348 390.249 399.289 399.888 387.071C409.024 374.203 420.218 361.772 431.838 353.241C448.292 345.416 465.295 360.87 461.295 376.552Z" stroke="#0EA5E9" stroke-width="2.57686" stroke-linecap="round" stroke-dasharray="3.87 7.73"/>
<path opacity="0.9" d="M449.089 381.692C440.657 395.49 420.001 411.352 403.328 421.281C386.421 433.235 380.891 430.403 389.921 415.484C397.45 400.368 415.364 379.845 431.699 369.22C447.834 360.433 456.12 367.71 449.089 381.692Z" stroke="#0EA5E9" stroke-width="2.57686" stroke-linecap="round" stroke-dasharray="3.87 5.15"/>
</svg>
